<?xml version="1.0" standalone="no"?>
<!DOCTYPE svg PUBLIC "-//W3C//DTD SVG 20010904//EN"
 "http://www.w3.org/TR/2001/REC-SVG-20010904/DTD/svg10.dtd">
<svg version="1.0" xmlns="http://www.w3.org/2000/svg"
 width="120.000000pt" height="250.000000pt" viewBox="0 0 120.000000 250.000000"
 preserveAspectRatio="xMidYMid meet">
<metadata>
Created by potrace 1.11, written by Peter Selinger 2001-2013
</metadata>
<g transform="translate(0.000000,250.000000) scale(0.100000,-0.100000)"
fill="#000000" stroke="none">
<path d="M324 575 c17 -13 17 -15 3 -21 -15 -5 -15 -7 0 -22 9 -10 24 -17 32
-17 9 -1 15 -6 14 -12 -3 -15 65 -46 88 -40 11 3 27 -2 36 -11 11 -12 18 -13
20 -5 3 7 10 10 17 7 19 -7 89 24 81 36 -3 5 -15 10 -27 10 -17 0 -18 3 -8 14
9 12 5 16 -27 21 -21 4 -79 18 -129 31 -106 28 -127 30 -100 9z"/>
</g>
</svg>
