<?xml version="1.0" encoding="UTF-8" standalone="no"?>
<svg
   xmlns:dc="http://purl.org/dc/elements/1.1/"
   xmlns:cc="http://creativecommons.org/ns#"
   xmlns:rdf="http://www.w3.org/1999/02/22-rdf-syntax-ns#"
   xmlns:svg="http://www.w3.org/2000/svg"
   xmlns="http://www.w3.org/2000/svg"
   xmlns:sodipodi="http://sodipodi.sourceforge.net/DTD/sodipodi-0.dtd"
   xmlns:inkscape="http://www.inkscape.org/namespaces/inkscape"
   version="1.0"
   width="1168.000000pt"
   height="1648.000000pt"
   viewBox="0 0 1168.000000 1648.000000"
   preserveAspectRatio="xMidYMid meet"
   id="svg2"
   inkscape:version="0.48.2 r9819"
   sodipodi:docname="original2.svg">
  <defs
     id="defs124" />
  <sodipodi:namedview
     pagecolor="#ffffff"
     bordercolor="#666666"
     borderopacity="1"
     objecttolerance="10"
     gridtolerance="10"
     guidetolerance="10"
     inkscape:pageopacity="0"
     inkscape:pageshadow="2"
     inkscape:window-width="1280"
     inkscape:window-height="756"
     id="namedview122"
     showgrid="false"
     inkscape:zoom="0.26116505"
     inkscape:cx="730"
     inkscape:cy="1030"
     inkscape:window-x="0"
     inkscape:window-y="0"
     inkscape:window-maximized="0"
     inkscape:current-layer="svg2" />
  <metadata
     id="metadata4">
Created by potrace 1.11, written by Peter Selinger 2001-2013
<rdf:RDF>
  <cc:Work
     rdf:about="">
    <dc:format>image/svg+xml</dc:format>
    <dc:type
       rdf:resource="http://purl.org/dc/dcmitype/StillImage" />
  </cc:Work>
</rdf:RDF>
</metadata>
  <g
     id="g4009">
    <path
       inkscape:connector-curvature="0"
       id="path3950"
       d="m 260.3125,821.625 c -5.13643,0.56295 -11.80718,-0.80125 -15.15625,4.3125 7.23015,13.94408 18.76205,25.03099 29.15574,36.5708 9.87627,9.42171 22.64908,16.62218 35.71926,19.89795 -9.31947,0.39482 -18.50724,-4.34781 -26.34375,-9.34375 -16.44114,-11.31783 -27.56588,-28.32613 -38.71875,-44.4375 -5.36274,-5.77964 -13.67074,-1.01256 -19.40625,1.65625 -15.58821,9.8048 -30.66372,21.78689 -41.0625,37.0625 -6.14416,9.37387 -9.99589,22.45698 -2.75,32.34375 5.84051,8.34959 14.99188,14.74986 24.8125,17.21875 52.71428,-2.02589 105.55847,-5.2094 158.33986,-2.5112 8.96616,-0.54242 18.74967,2.15105 27.20293,-1.36783 16.0807,-11.27671 28.56765,-27.91372 35.01971,-46.33972 -1.4348,-10.41463 -13.54829,-12.51163 -21.2294,-16.80537 -30.63095,-13.71001 -64.28484,-17.50909 -97.05185,-23.25713 -16.01622,-3.00739 -32.18436,-5.37499 -48.53125,-5 z"
       style="fill:#ffdd55;fill-opacity:1;stroke:none;stroke-width:0.80000000999999998;stroke-opacity:1" />
    <path
       inkscape:connector-curvature="0"
       id="path3952"
       d="m 564.1875,815.25 c -26.79439,1.28679 -54.84335,2.28571 -78.83659,15.56649 -20.24036,9.84246 -42.65111,19.04637 -55.78841,38.21476 -8.11007,11.5028 -15.68946,23.69544 -22.15625,36.125 -1.40205,3.89717 2.45226,7.12343 6.125,5.84375 20.50475,-0.82332 40.4937,-6.1882 61.09245,-6.30095 37.58276,-1.41924 75.34886,-2.18417 112.44056,-8.78851 21.19857,-3.61664 42.49745,-7.16904 63.62324,-10.91054 5.95942,-3.3431 1.57731,-11.08448 -0.97122,-15.19452 -12.90579,-24.70855 -36.03365,-45.76214 -64.18503,-50.21173 -13.85217,-0.64868 -25.03749,9.15395 -36.09375,15.96875 -18.2649,12.97162 -33.93637,31.29271 -55.4375,38.875 -2.11768,-1.33018 3.73459,-2.1559 4.15868,-3.24509 25.75519,-14.37959 46.7875,-35.99685 71.74757,-51.34866 3.05971,-4.06261 -2.74579,-5.29945 -5.71875,-4.59375 z"
       style="fill:#ffdd55;fill-opacity:1;stroke:none;stroke-width:0.80000000999999998;stroke-opacity:1" />
    <path
       inkscape:connector-curvature="0"
       id="path3954"
       d="m 749.21875,778.1875 c -37.59359,-0.0336 -71.80547,19.52109 -100.30991,42.38311 -6.6968,5.94235 -12.68975,12.79164 -16.72134,20.86689 6.72749,13.76686 17.54905,25.49857 22.46875,40.09375 3.86169,6.5478 12.64482,2.81693 18.62224,3.14488 38.61648,-2.5646 77.16495,2.56266 115.78379,2.71999 25.96942,0.26376 52.26563,0.38896 77.90647,-3.83362 8.30851,-3.1234 8.81991,-13.51455 6.8125,-20.84375 -4.6341,-20.15898 -19.63858,-35.93668 -33.6875,-50.21875 -24.45442,-22.42257 -57.61808,-34.95748 -90.875,-34.3125 z"
       style="fill:#ffdd55;fill-opacity:1;stroke:none;stroke-width:0.80000000999999998;stroke-opacity:1" />
  </g>
  <path
     style="fill:#ff6600;stroke:none"
     d="M 744.15625,775.0625 C 717.50643,775.70983 692.6676,787.52148 669,798.25 c -11.56957,6.46607 -19.25463,17.75928 -29.90625,25.5 -4.3334,3.01548 -5.36654,8.46281 -8.375,12.1875 -5.70821,3.24937 -9.36455,-4.37501 -13.71875,-6.6875 -22.20166,-15.86693 -50.73404,-17.91646 -77.15625,-15.40625 -16.64705,0.76515 -33.35093,3.23665 -48.41616,10.65082 -13.14795,6.14182 -26.37482,12.66678 -39.05031,19.71655 -7.96222,5.38225 -14.00453,14.10433 -22.78353,17.88263 -4.98848,0.0487 -4.90376,-6.96894 -9.90783,-7.38751 -18.40283,-9.68517 -38.42381,-16.37725 -58.56044,-21.48942 -18.89567,-4.37742 -38.09762,-7.08119 -57.26133,-9.41776 -18.18752,-4.21794 -37.0652,-4.50646 -55.5829,-3.64281 -7.58187,1.17295 -15.23628,2.68988 -22.03782,6.40837 -19.86074,8.74238 -37.53718,24.04193 -47.02468,43.74788 -3.5732,10.74462 -4.05285,23.9261 2.53125,33.40625 10.03976,11.769 25.67589,17.37363 40.9375,15.84375 32.96228,-0.46363 65.73713,-7.93166 98.76711,-4.12418 21.90627,1.59404 43.90507,0.92401 65.79126,3.09632 3.19574,0.72667 5.89683,1.08189 8.56663,-1.12839 3.98735,-2.0295 8.47433,0.91579 12.28125,-1.53125 25.37245,-5.39278 51.72787,-1.75991 77.43382,-4.8357 25.9638,-2.78275 51.70428,-6.12099 77.68187,-8.73796 15.13767,-2.43023 30.73996,-3.29089 45.63431,-6.42634 18.3274,-5.03117 37.84211,-4.23964 56.375,-8.53125 12.22705,-1.96042 24.77396,-1.58611 36.96567,0.23594 3.97628,-0.47762 7.55162,2.57983 11.15933,1.32656 2.88507,0.43596 5.14364,1.90153 8.03125,0.65625 46.50022,1.58541 93.13774,0.59046 139.65625,-1.3125 5.93061,0.79476 11.87934,-3.24287 11.96875,-9.5625 3.24236,-13.86061 -0.90742,-28.09661 -9.25,-39.34375 -10.41695,-19.30527 -27.44446,-33.41593 -44.75,-46.3125 -9.2063,-3.52576 -17.15815,-10.01062 -27.15625,-11.46875 -15.49569,-4.20583 -31.54028,-6.8466 -47.6875,-6.5 z m 5.28125,3.53125 c 23.42666,1.18838 47.07816,5.88167 67.67609,17.49399 19.01025,10.5098 33.86676,27.30284 46.07391,45.03726 8.05931,10.80603 14.35063,25.80941 8.21875,38.96875 -3.86586,6.39651 -12.3865,3.06309 -18.43044,4.58062 -43.96465,3.03172 -88.22929,1.44938 -132.10081,-1.08062 -20.46281,-2.53396 -41.28991,-0.92385 -61.59375,1.21875 -5.82304,-1.88145 -4.45558,-9.70048 -8,-13.6875 -4.76535,-10.05345 -12.05205,-18.71306 -18,-27.9375 -1.41033,-4.52129 4.7749,-5.59974 5.34375,-9.375 7.07997,-14.07858 22.28483,-21.14496 34.5474,-30.0393 16.47546,-10.36106 34.00851,-19.64374 53.54635,-22.3357 7.41883,-1.80411 15.08575,-2.56771 22.71875,-2.84375 z m -181.40625,41.8125 c -21.72577,11.83354 -39.11345,29.5244 -58.8125,44.1875 -5.94636,3.87055 -12.63328,6.4517 -19.15625,9.0625 1.82424,2.39711 4.07078,3.23259 6.71875,1.65625 9.3214,-4.54146 18.39674,-9.50081 25.875,-16.84375 17.31306,-14.49306 34.35673,-30.90904 56.09375,-38.125 5.47656,-1.18415 10.10818,2.64346 15.4375,1.65625 9.10086,1.65891 16.79389,7.3707 24.59067,11.99348 15.74335,11.46525 27.51328,28.10061 34.97183,45.88152 0.34151,5.95131 -7.28964,5.1068 -11.0625,5.71875 -20.94738,1.35747 -41.18005,8.45323 -62.07299,10.16244 -30.30682,4.8566 -61.00424,7.77384 -91.73951,6.18131 -26.3719,-0.0183 -52.04883,7.42874 -78.4375,8.34375 -5.59048,-3.06559 -1.43956,-9.62191 1.8125,-12.71875 11.89444,-14.34942 16.91702,-34.94968 34.25,-44.21875 4.99391,-4.26025 9.82732,-9.26105 16.5,-10.5625 18.55204,-9.70274 37.07818,-20.57586 58.1875,-23.375 17.66785,-2.52186 35.61819,-1.86994 53.40625,-3.0625 -2.1875,1.35417 -4.375,2.70833 -6.5625,4.0625 z M 254.625,822.25 c 20.94627,-0.22847 42.00394,1.35808 62.0625,7.59375 18.69698,3.70087 38.25789,2.93246 56.4375,9.34375 15.07228,5.15795 30.43031,9.53756 44.59375,16.9375 5.15352,2.32277 10.64535,7.44997 8.09375,13.6875 -6.62704,15.89427 -17.7055,29.95777 -31.04178,40.70455 -5.59333,5.71138 -14.30016,1.92502 -21.42617,2.77797 -31.67196,-0.26883 -63.37005,-2.75346 -95.02963,-1.41292 -25.23887,1.55464 -50.84058,6.96166 -76.02613,2.71899 -9.47411,-3.99938 -18.57527,-10.91846 -23.07004,-20.38234 -3.84496,-13.07263 3.95489,-26.49543 12.50679,-35.90484 13.49326,-13.5617 28.536,-28.37833 48.11821,-31.75141 7.50195,1.37338 8.2666,10.41998 12.96875,15.125 13.22184,19.5995 30.93729,39.66519 55.6875,42.71875 1.97211,0.28156 7.70915,-0.003 6.15625,-2.28125 -20.51499,-2.9255 -38.4701,-15.7595 -50.75357,-31.92676 -5.20888,-7.58276 -11.61885,-14.30147 -17.59018,-21.16699 -2.14091,-5.27738 4.29512,-7.22392 8.3125,-6.78125 z"
     id="path78"
     inkscape:connector-curvature="0" />
  <path
     style="fill:#000000;stroke:none"
     inkscape:connector-curvature="0"
     id="path8"
     d="m 16.3,1.7 c 0.9,0.2 2.3,0.2 3,0 0.6,-0.3 -0.1,-0.5 -1.8,-0.5 -1.6,0 -2.2,0.2 -1.2,0.5 z" />
  <path
     style="fill:#000000;stroke:none"
     inkscape:connector-curvature="0"
     id="path10"
     d="m 24.8,1.7 c 0.6,0.2 1.8,0.2 2.5,0 0.6,-0.3 0.1,-0.5 -1.3,-0.5 -1.4,0 -1.9,0.2 -1.2,0.5 z" />
  <path
     style="fill:#000000;stroke:none"
     inkscape:connector-curvature="0"
     id="path12"
     d="m 37.8,1.7 c 0.6,0.2 1.8,0.2 2.5,0 0.6,-0.3 0.1,-0.5 -1.3,-0.5 -1.4,0 -1.9,0.2 -1.2,0.5 z" />
  <path
     style="fill:#000000;stroke:none"
     inkscape:connector-curvature="0"
     id="path14"
     d="M 45.8,1.7 C 47,1.9 49,1.9 50.3,1.7 51.5,1.5 50.5,1.3 48,1.3 45.5,1.3 44.5,1.5 45.8,1.7 z" />
  <path
     style="fill:#000000;stroke:none"
     inkscape:connector-curvature="0"
     id="path16"
     d="m 53.8,1.7 c 0.6,0.2 1.8,0.2 2.5,0 0.6,-0.3 0.1,-0.5 -1.3,-0.5 -1.4,0 -1.9,0.2 -1.2,0.5 z" />
  <path
     style="fill:#000000;stroke:none"
     inkscape:connector-curvature="0"
     id="path18"
     d="M 61.8,1.7 C 63,1.9 65,1.9 66.3,1.7 67.5,1.5 66.5,1.3 64,1.3 61.5,1.3 60.5,1.5 61.8,1.7 z" />
  <path
     style="fill:#000000;stroke:none"
     inkscape:connector-curvature="0"
     id="path20"
     d="M 70.8,1.7 C 72,1.9 74,1.9 75.3,1.7 76.5,1.5 75.5,1.3 73,1.3 70.5,1.3 69.5,1.5 70.8,1.7 z" />
  <path
     style="fill:#000000;stroke:none"
     inkscape:connector-curvature="0"
     id="path22"
     d="m 84.3,1.7 c 3.7,0.2 9.6,0.2 13,0 3.4,-0.2 0.4,-0.3 -6.8,-0.3 -7.1,0 -9.9,0.1 -6.2,0.3 z" />
  <path
     style="fill:#000000;stroke:none"
     inkscape:connector-curvature="0"
     id="path24"
     d="m 118.8,1.7 c 8.3,0.2 22.1,0.2 30.5,0 8.3,-0.1 1.5,-0.3 -15.3,-0.3 -16.8,0 -23.6,0.2 -15.2,0.3 z" />
  <path
     style="fill:#000000;stroke:none"
     inkscape:connector-curvature="0"
     id="path26"
     d="m 171.8,1.7 c 3.4,0.2 9,0.2 12.5,0 3.4,-0.2 0.6,-0.3 -6.3,-0.3 -6.9,0 -9.7,0.1 -6.2,0.3 z" />
  <path
     style="fill:#000000;stroke:none"
     inkscape:connector-curvature="0"
     id="path28"
     d="m 192.3,1.7 c 0.9,0.2 2.3,0.2 3,0 0.6,-0.3 -0.1,-0.5 -1.8,-0.5 -1.6,0 -2.2,0.2 -1.2,0.5 z" />
  <path
     style="fill:#000000;stroke:none"
     inkscape:connector-curvature="0"
     id="path30"
     d="m 198.8,1.7 c 1.2,0.2 3.2,0.2 4.5,0 1.2,-0.2 0.2,-0.4 -2.3,-0.4 -2.5,0 -3.5,0.2 -2.2,0.4 z" />
  <path
     style="fill:#000000;stroke:none"
     inkscape:connector-curvature="0"
     id="path32"
     d="m 209.3,1.7 c 0.9,0.2 2.3,0.2 3,0 0.6,-0.3 -0.1,-0.5 -1.8,-0.5 -1.6,0 -2.2,0.2 -1.2,0.5 z" />
  <path
     style="fill:#000000;stroke:none"
     inkscape:connector-curvature="0"
     id="path34"
     d="M 215,1.5 C 217.9,2.2 418,2.6 418,1.9 418,1.5 372,1.2 315.8,1.2 259.5,1.2 214.2,1.3 215,1.5 z" />
  <path
     style="fill:#000000;stroke:none"
     inkscape:connector-curvature="0"
     id="path36"
     d="m 421.4,2.1 c -1.6,0.4 4.1,0.7 12.6,0.6 8.5,0 14.6,-0.1 13.5,-0.3 -4.1,-0.7 -23.3,-0.9 -26.1,-0.3 z" />
  <path
     style="fill:#000000;stroke:none"
     inkscape:connector-curvature="0"
     id="path38"
     d="m 917.8,1.7 c 0.7,0.3 1.6,0.2 1.9,-0.1 0.4,-0.3 -0.2,-0.6 -1.3,-0.5 -1.1,0 -1.4,0.3 -0.6,0.6 z" />
  <path
     style="fill:#000000;stroke:none"
     inkscape:connector-curvature="0"
     id="path40"
     d="m 921.3,1.6 c 0.8,0.8 47.1,1.8 79.2,1.7 13.2,0 21.8,0.2 19,0.6 -2.7,0.3 18.9,0.7 48,0.9 29.2,0.1 60.2,0.6 69,1.1 15.5,0.9 15.2,0.9 -8,0.5 -13.2,-0.2 -39.1,-0.7 -57.5,-1 -18.4,-0.4 -33.3,-0.4 -33,-0.1 0.3,0.3 14.9,0.8 32.5,1.1 17.6,0.4 35.4,0.9 39.5,1.1 4.1,0.3 15.5,0.5 25.3,0.6 9.8,0.1 18,0.6 18.2,1 0.3,0.4 2.4,0.5 4.8,0.2 5.4,-0.5 6.5,0.7 8.2,8.5 l 1.3,5.7 0.1,-11.3 L 1168,1 1044.3,1 c -68,0 -123.3,0.3 -123,0.6 z m 240.5,6.1 c -1,0.2 -2.8,0.2 -4,0 -1.3,-0.2 -0.5,-0.4 1.7,-0.4 2.2,-0.1 3.2,0.1 2.3,0.4 z" />
  <path
     style="fill:#000000;stroke:none"
     inkscape:connector-curvature="0"
     id="path42"
     d="m 482.8,3.7 c 0.7,0.3 1.6,0.2 1.9,-0.1 0.4,-0.3 -0.2,-0.6 -1.3,-0.5 -1.1,0 -1.4,0.3 -0.6,0.6 z" />
  <path
     style="fill:#000000;stroke:none"
     inkscape:connector-curvature="0"
     id="path44"
     d="m 486.8,3.7 c 0.7,0.3 1.6,0.2 1.9,-0.1 0.4,-0.3 -0.2,-0.6 -1.3,-0.5 -1.1,0 -1.4,0.3 -0.6,0.6 z" />
  <path
     style="fill:#000000;stroke:none"
     inkscape:connector-curvature="0"
     id="path46"
     d="m 490.8,3.7 c 0.6,0.2 1.8,0.2 2.5,0 0.6,-0.3 0.1,-0.5 -1.3,-0.5 -1.4,0 -1.9,0.2 -1.2,0.5 z" />
  <path
     style="fill:#000000;stroke:none"
     inkscape:connector-curvature="0"
     id="path48"
     d="m 496.3,3.7 c 0.9,0.2 2.3,0.2 3,0 0.6,-0.3 -0.1,-0.5 -1.8,-0.5 -1.6,0 -2.2,0.2 -1.2,0.5 z" />
  <path
     style="fill:#000000;stroke:none"
     inkscape:connector-curvature="0"
     id="path50"
     d="m 12.4,21.5 c 0,8.8 0.2,12.3 0.3,7.7 0.2,-4.6 0.2,-11.8 0,-16 -0.1,-4.2 -0.3,-0.5 -0.3,8.3 z" />
  <path
     style="fill:#000000;stroke:none"
     inkscape:connector-curvature="0"
     id="path52"
     d="m 257.5,34 c -0.3,0.5 -0.1,1 0.4,1 0.6,0 1.1,-0.5 1.1,-1 0,-0.6 -0.2,-1 -0.4,-1 -0.3,0 -0.8,0.4 -1.1,1 z" />
  <path
     style="fill:#000000;stroke:none"
     inkscape:connector-curvature="0"
     id="path54"
     d="m 12.4,80 c 0,17.3 0.2,24.4 0.3,15.7 0.2,-8.6 0.2,-22.8 0,-31.5 -0.1,-8.6 -0.3,-1.5 -0.3,15.8 z" />
  <path
     style="fill:#000000;stroke:none"
     inkscape:connector-curvature="0"
     id="path56"
     d="m 12.3,118 c 0,3.6 0.2,5 0.4,3.2 0.2,-1.7 0.2,-4.7 0,-6.5 -0.2,-1.7 -0.4,-0.3 -0.4,3.3 z" />
  <path
     style="fill:#000000;stroke:none"
     inkscape:connector-curvature="0"
     id="path58"
     d="m 12.3,132 c 0,4.1 0.2,5.8 0.4,3.7 0.2,-2 0.2,-5.4 0,-7.5 -0.2,-2 -0.4,-0.3 -0.4,3.8 z" />
  <path
     style="fill:#000000;stroke:none"
     inkscape:connector-curvature="0"
     id="path60"
     d="m 12.2,143 c 0,1.4 0.2,1.9 0.5,1.2 0.2,-0.6 0.2,-1.8 0,-2.5 -0.3,-0.6 -0.5,-0.1 -0.5,1.3 z" />
  <path
     style="fill:#000000;stroke:none"
     inkscape:connector-curvature="0"
     id="path62"
     d="m 12.2,150.5 c 0,1.6 0.2,2.2 0.5,1.2 0.2,-0.9 0.2,-2.3 0,-3 -0.3,-0.6 -0.5,0.1 -0.5,1.8 z" />
  <path
     style="fill:#000000;stroke:none"
     inkscape:connector-curvature="0"
     id="path64"
     d="m 12.1,169.6 c 0,1.1 0.3,1.4 0.6,0.6 0.3,-0.7 0.2,-1.6 -0.1,-1.9 -0.3,-0.4 -0.6,0.2 -0.5,1.3 z" />
  <path
     style="fill:#000000;stroke:none"
     inkscape:connector-curvature="0"
     id="path66"
     d="m 254.9,210.4 c -0.2,0.2 -11.6,0.6 -25.4,0.7 -14.9,0.3 -25.4,0.8 -26.1,1.4 -0.6,0.6 -1.1,2.7 -1.2,4.7 -0.1,2.9 0.4,4.2 2.5,5.8 1.8,1.4 2.9,1.7 3.3,0.9 0.9,-1.4 28,-2.1 28,-0.6 0,0.6 0.5,0.6 1.3,0 0.6,-0.5 6.8,-1.1 13.7,-1.4 13.5,-0.4 106.5,-0.3 164.5,0.3 19.8,0.2 39.6,0.2 44,-0.2 4.4,-0.3 17.2,-0.2 28.5,0.2 11.3,0.4 53.1,0.9 93,1.2 63.9,0.4 112.5,1.2 124.6,2.1 10.8,0.7 40.8,1.6 64.9,2 14.9,0.2 29.8,0.6 33.3,0.8 7.9,0.5 9.5,-0.6 9.4,-6.2 -0.1,-2.4 -0.3,-4.6 -0.6,-4.8 -0.3,-0.3 -18.7,-0.7 -40.8,-0.9 -22.2,-0.1 -44.8,-0.5 -50.3,-0.8 -12,-0.7 -30.7,-1.4 -50.7,-2.1 -11.1,-0.4 -14.8,-0.2 -15.1,0.8 -0.4,0.9 -0.6,0.9 -0.6,0 -0.1,-1 -11.8,-1.3 -51.3,-1.4 -28.2,-0.1 -58,-0.3 -66.3,-0.5 -31.6,-0.8 -282.1,-2.5 -282.6,-2 z" />
  <path
     style="fill:#000000;stroke:none"
     inkscape:connector-curvature="0"
     id="path68"
     d="m 241.5,348.1 c -22.1,1.5 -26.4,1.9 -36.5,3.3 -5.8,0.9 -13.8,2 -17.7,2.6 -15,2 -26.5,5.6 -27.7,8.5 -1.2,3.1 -0.6,6.2 1.7,8.8 l 2.2,2.6 5.9,-2.5 c 7.3,-3 21.2,-5.4 39.9,-6.9 2.6,-0.2 5.1,-0.6 5.5,-0.9 0.5,-0.3 6.5,-0.8 13.3,-1.1 6.8,-0.3 14.7,-0.8 17.4,-1 6.2,-0.6 93.5,-0.1 103.5,0.5 1.4,0.1 16.6,0.1 33.8,0.1 17.3,-0.1 31.8,0.1 32.2,0.4 0.5,0.3 9.3,1 19.7,1.5 18.3,1 29.2,1.8 30.3,2.5 0.3,0.1 3.4,0.6 7,0.9 3.6,0.4 7.2,0.9 8,1.1 0.8,0.2 3.1,0.7 5,0.9 1.9,0.3 6.9,0.9 11,1.5 4.1,0.5 9.8,1.3 12.5,1.6 2.8,0.3 6.6,1 8.5,1.5 1.9,0.5 8.5,1.1 14.5,1.5 6.1,0.3 13.5,1 16.5,1.5 3,0.5 8.4,1.2 12,1.5 3.6,0.3 8.8,0.7 11.5,1 7.3,0.7 26.6,1.8 29.5,1.7 1.4,0 6.1,0.4 10.5,0.9 27.5,3 28.1,3.1 93.5,4.5 15.1,0.3 28.6,0.6 30,0.7 4.8,0 25.9,-2.3 33.2,-3.7 12.6,-2.5 15.3,-2.9 16.1,-2.7 0.5,0.1 2.5,-0.3 4.5,-0.8 2,-0.5 5.6,-1.2 8,-1.5 2.4,-0.3 6,-1 8,-1.5 2,-0.6 5.5,-1.3 7.7,-1.5 5.1,-0.7 20.7,-5.2 26.3,-7.6 2.3,-1 4.2,-1.7 4.2,-1.4 0,0.3 1,-0.4 2.2,-1.6 1.2,-1.1 2.5,-2 2.8,-2 2.5,0 4.2,-13.2 1.9,-14.5 -0.6,-0.4 -2,0.2 -3.2,1.3 -2.1,2 -12.4,6.2 -23.5,9.6 -6.6,2.1 -21.3,4.7 -22.4,4 -0.4,-0.3 -0.8,-0.1 -0.8,0.4 0,0.5 -3.5,1.5 -7.7,2.1 -4.3,0.7 -13.2,2.3 -19.8,3.6 -6.6,1.4 -14.9,2.8 -18.5,3.2 -13.1,1.6 -109,-0.1 -124.5,-2.2 -3,-0.4 -24.4,-2 -38.5,-3 -17,-1.1 -35.3,-2.6 -35.9,-2.9 -0.8,-0.5 -17.4,-2.4 -27.6,-3.1 -4.4,-0.4 -13.4,-1.5 -20,-2.5 -6.6,-1 -14.8,-2.1 -18.3,-2.5 -3.4,-0.3 -7.3,-1 -8.5,-1.4 -3.2,-1.2 -31.2,-4 -42.4,-4.2 -5,-0.1 -11.5,-0.6 -14.5,-1.1 -8.5,-1.4 -164.4,-2.8 -182.3,-1.7 z" />
  <path
     style="fill:#000000;stroke:none"
     inkscape:connector-curvature="0"
     id="path72"
     d="m 532.5,640 c -0.3,0.6 0.1,0.7 0.9,0.4 1.8,-0.7 2.1,-1.4 0.7,-1.4 -0.6,0 -1.3,0.4 -1.6,1 z" />
  <path
     style="fill:#000000;stroke:none"
     inkscape:connector-curvature="0"
     id="path76"
     d="m 856.7,727.7 c -0.4,0.3 -0.7,1.1 -0.7,1.7 0,0.6 0.5,0.5 1.2,-0.2 0.6,-0.6 0.9,-1.4 0.7,-1.7 -0.3,-0.3 -0.9,-0.2 -1.2,0.2 z" />
  <path
     style="fill:#000000;stroke:none"
     inkscape:connector-curvature="0"
     id="path82"
     d="m 699.5,918.1 c -3.8,0.4 -11.7,1 -17.5,1.3 -5.8,0.4 -12.5,0.9 -15,1.3 -2.5,0.4 -4.8,0.6 -5.2,0.5 -0.4,-0.1 -7,0.7 -14.5,1.8 -30.1,4.4 -90.1,12.9 -95.4,13.5 -6,0.6 -9,1.1 -11.7,1.9 -0.9,0.3 -5.3,0.8 -9.7,1.1 -4.4,0.4 -19.2,1.7 -33,3 -13.7,1.3 -31.7,2.9 -40,3.5 -8.2,0.6 -16.1,1.3 -17.5,1.6 -1.4,0.3 -13.7,0.6 -27.5,0.8 -27.1,0.4 -32.5,1 -32.5,3.3 0,1 0.7,1.4 2,1 1.1,-0.3 2.2,-0.1 2.5,0.3 0.3,0.5 1.9,0.5 3.5,0 1.7,-0.5 4.1,-0.7 5.3,-0.4 4,0.9 34.1,0.5 46.8,-0.5 6.8,-0.6 16.1,-1.3 20.6,-1.6 4.6,-0.3 9.1,-0.8 10,-0.9 2.2,-0.5 12,-1.4 22.8,-2.1 4.4,-0.4 9.6,-0.8 11.5,-1 1.9,-0.2 8.5,-0.9 14.5,-1.5 6.1,-0.6 15.5,-1.7 21,-2.5 5.5,-0.8 15.6,-2.1 22.5,-3 6.9,-0.9 18.1,-2.5 25,-3.5 6.9,-1.1 17.9,-2.6 24.5,-3.5 6.6,-0.9 17.4,-2.5 24,-3.5 10.4,-1.7 32.4,-4.1 61,-6.6 4.4,-0.3 21,-0.6 36.9,-0.6 33.5,0.1 42.5,0.7 62.1,3.8 5,0.7 9.3,1.4 9.8,1.4 1,0 0.9,-3.8 -0.2,-4.4 -1,-0.7 -11.9,-2.3 -25.1,-3.7 -11.4,-1.2 -71.6,-1.9 -81.5,-0.8 z" />
  <path
     style="fill:#000000;stroke:none"
     inkscape:connector-curvature="0"
     id="path84"
     d="m 737,935.3 c -0.3,0.3 -6.8,0.8 -14.5,1.1 -7.7,0.4 -15.3,0.8 -17,1 -1.6,0.2 -7.3,0.6 -12.5,1 -5.2,0.3 -12,0.9 -15,1.1 -3.1,0.3 -13.9,0.9 -24,1.5 -10.2,0.5 -19.6,1.2 -21,1.5 -1.4,0.3 -4.3,0.6 -6.5,0.6 -5.4,0.1 -32.1,3.5 -42,5.4 -7.2,1.3 -23.2,3.8 -32.5,5.1 -1.9,0.2 -6.2,1.1 -9.5,1.9 -6.9,1.6 -11.3,2.3 -27.7,4.5 -4.6,0.7 -8.5,1.3 -8.8,1.5 -0.7,0.4 -14.9,2.3 -23,3.1 -3,0.2 -6.8,0.7 -8.5,0.9 -22.7,3.6 -98.9,5.1 -130.7,2.6 -9.7,-0.7 -18.6,-1.1 -19.7,-0.8 -1.1,0.3 -2.1,0.1 -2.3,-0.3 -0.2,-0.5 -7.3,-0.4 -15.8,0.1 -21.2,1.2 -25.4,1.6 -36.2,3.8 -5.2,1.1 -9.4,1.6 -9.6,1 -0.7,-1.8 -4.2,1.2 -4.2,3.6 0,1.4 0.3,2.5 0.8,2.5 1.1,0 16.2,-2.8 21.2,-3.9 4.8,-1 16.7,-2 31.5,-2.6 5,-0.2 19.1,0.3 31.5,1.2 12.4,0.9 25.4,1.7 29,1.7 50.1,-0.2 71.5,-0.7 83.5,-2 31.7,-3.3 51.5,-5.9 75,-9.9 11.6,-2 23.7,-4 27,-4.5 3.3,-0.5 11.2,-1.9 17.5,-3 24.1,-4.3 37,-6 57.5,-7.5 3.9,-0.3 7.9,-0.8 9,-1 1.1,-0.2 8.3,-0.7 16,-1 7.7,-0.3 16,-0.7 18.5,-1 2.5,-0.2 9,-0.7 14.5,-1.1 5.5,-0.3 10.3,-0.8 10.6,-1 0.3,-0.2 10.4,-0.8 22.5,-1.5 25.1,-1.3 56.7,-1.3 66.9,0 3.9,0.5 10.5,0.8 14.8,0.6 4.4,-0.2 9.2,0.1 10.8,0.5 3.8,1.1 9.9,0.1 9.9,-1.6 0,-1.9 -1.7,-2.6 -4.1,-1.9 -1.7,0.6 -1.9,0.9 -0.8,1.6 1.1,0.7 1,0.9 -0.3,0.9 -1,0 -1.8,-0.7 -1.8,-1.5 0,-1.7 -5.4,-2.9 -10.5,-2.3 -1.9,0.2 -3.5,0.2 -3.5,-0.2 0,-0.3 -3.3,-0.6 -7.2,-0.6 -4,-0.1 -18.8,-0.5 -32.8,-0.9 -14,-0.4 -25.7,-0.5 -26,-0.2 z m 77,3.1 c 0,0.2 -0.7,0.6 -1.5,1 -0.8,0.3 -1.5,0.1 -1.5,-0.4 0,-0.6 0.7,-1 1.5,-1 0.8,0 1.5,0.2 1.5,0.4 z" />
  <path
     style="fill:#000000;stroke:none"
     inkscape:connector-curvature="0"
     id="path86"
     d="m 247,945.7 c -25.3,2.5 -43,5.6 -43,7.5 0,0.5 0.6,0.6 1.3,0.2 0.8,-0.5 0.8,-0.2 -0.2,0.9 -1.6,2.1 -1.5,2.1 7.9,0.3 4.1,-0.8 9.8,-1.7 12.5,-2 2.8,-0.3 9.3,-1 14.5,-1.6 11.3,-1.3 71.1,-1.4 96.5,-0.2 11.9,0.6 18.2,0.5 18.7,-0.1 1.2,-2 -0.4,-3.5 -4.5,-4.2 -4.3,-0.7 -97.5,-1.5 -103.7,-0.8 z" />
  <path
     style="fill:#000000;stroke:none"
     inkscape:connector-curvature="0"
     id="path88"
     d="m 657.5,953.1 c -3.8,0.5 -12.6,1.9 -19.5,3 -6.9,1.2 -13.4,2.2 -14.5,2.4 -9.2,1.3 -17,2.8 -22.5,4.4 -24.3,7.1 -28.8,8.4 -31.4,8.8 -1.6,0.3 -4.1,1 -5.5,1.5 -1.4,0.6 -3,1.2 -3.6,1.3 -0.5,0.2 -4.5,1.2 -8.8,2.4 -4.3,1.3 -8.8,2.4 -9.9,2.6 -4.2,0.8 -8.8,2.7 -8.8,3.5 0,0.5 -0.8,0.6 -1.7,0.3 -1.6,-0.6 -1.6,-0.5 -0.4,1.1 1.4,1.6 1.6,1.6 2.7,0.2 1.2,-1.7 2.9,-2.2 1.9,-0.6 -0.3,0.5 -0.1,1 0.5,1 1.1,0 14.4,-3.5 28.5,-7.5 4.4,-1.2 13.4,-3.7 20,-5.5 6.6,-1.7 14.3,-3.9 17,-4.7 2.8,-0.8 11.5,-2.5 19.5,-3.8 8,-1.4 15.6,-2.7 17,-3 11.3,-2.6 26.1,-3.5 56.5,-3.6 60.7,-0.3 101.6,1.8 129.9,6.6 8.5,1.4 10.9,1.1 10.4,-1.3 -0.2,-1.2 -3.1,-2.1 -11.8,-3.5 -17.1,-2.7 -15.2,-2.5 -40,-4.2 -4.7,-0.4 -11.2,-0.8 -14.5,-1.1 -13.9,-0.9 -104.5,-1.2 -111,-0.3 z" />
  <path
     style="fill:#000000;stroke:none"
     inkscape:connector-curvature="0"
     id="path90"
     d="m 199.6,954.6 c -0.8,2.1 0.1,3.4 2.5,3.4 1.6,0 1.8,-0.3 1,-1.9 -0.6,-1 -0.7,-2.1 -0.4,-2.5 0.3,-0.3 -0.1,-0.6 -0.9,-0.6 -0.9,0 -1.9,0.7 -2.2,1.6 z" />
  <path
     style="fill:#000000;stroke:none"
     inkscape:connector-curvature="0"
     id="path92"
     d="m 640,968 c 0,0.5 0.5,1 1.1,1 0.5,0 0.7,-0.5 0.4,-1 -0.3,-0.6 -0.8,-1 -1.1,-1 -0.2,0 -0.4,0.4 -0.4,1 z" />
  <path
     style="fill:#000000;stroke:none"
     inkscape:connector-curvature="0"
     id="path94"
     d="m 695.5,969.1 c -2.2,0.4 -8.3,1 -13.5,1.4 -20.4,1.4 -50,7 -58.8,11.1 -1.8,0.9 -6.1,2.5 -9.5,3.6 -3.4,1.1 -8.5,3.1 -11.4,4.4 -2.8,1.4 -9.7,3.3 -15.2,4.4 -5.6,1 -12.1,2.8 -14.6,3.9 -10.1,4.5 -59.9,14.2 -80.5,15.7 -4.7,0.3 -9.6,0.8 -11,1 -3.7,0.7 -73.7,1.9 -94,1.7 -9.6,-0.1 -46.8,-0.4 -82.7,-0.5 -64.2,-0.3 -65.2,-0.3 -66.8,1.7 -0.9,1.1 -1.4,1.4 -1,0.7 0.3,-0.6 0.1,-1.2 -0.4,-1.2 -0.6,0 -1.1,0.4 -1.1,0.9 0,0.4 -1.1,0.6 -2.5,0.3 -1.8,-0.3 -2.5,0 -2.5,1.2 0,0.9 0.5,1.6 1.1,1.6 0.5,0 0.8,-0.3 0.6,-0.8 -0.3,-0.4 1.4,-0.8 3.6,-0.9 2.3,-0.1 6.5,-0.3 9.2,-0.4 2.8,-0.2 8.6,0.1 13,0.5 4.4,0.4 15.9,0.7 25.5,0.6 43.1,-0.5 58.5,-0.5 73,0.3 8.5,0.5 20.5,0.9 26.5,0.9 21.7,0 87.2,-1.2 96,-1.7 11.7,-0.8 27.5,-2.4 28.4,-2.9 0.4,-0.3 7.2,-1.4 15.2,-2.5 7.9,-1.1 16.9,-2.7 19.9,-3.5 3,-0.8 9.6,-2.2 14.5,-3.1 5,-1 12.4,-3.1 16.5,-4.7 4.1,-1.6 11.8,-3.7 17.2,-4.8 5.3,-1 11,-2.6 12.7,-3.4 7.3,-3.8 30.5,-11.9 40.1,-13.9 10.8,-2.3 27.5,-4.5 42.6,-5.7 14.1,-1 16,-1.4 16.8,-3.6 0.8,-2.1 -2.4,-3.1 -6.9,-2.3 z" />
  <path
     style="fill:#000000;stroke:none"
     inkscape:connector-curvature="0"
     id="path96"
     d="m 586,973.5 c -0.7,0.8 -0.9,2.2 -0.5,3.2 0.6,1.5 0.9,1.3 1.6,-1.1 1,-3.5 0.7,-4.2 -1.1,-2.1 z" />
  <path
     style="fill:#000000;stroke:none"
     inkscape:connector-curvature="0"
     id="path98"
     d="m 584.2,980.5 c 0,1.6 0.2,2.2 0.5,1.2 0.2,-0.9 0.2,-2.3 0,-3 -0.3,-0.6 -0.5,0.1 -0.5,1.8 z" />
  <path
     style="fill:#000000;stroke:none"
     d="m 757.3125,982.21875 c -21.0466,-0.1171 -41.67861,4.47797 -61.3125,11.71875 -25.86838,8.6507 -50.65843,20.6063 -77.28125,26.6563 -2.0852,2.145 -6.24082,-0.1362 -8.40625,2.5 -24.22064,7.8713 -48.35483,17.7376 -74.125,19.1562 -17.83022,1.1343 -35.8722,3.7784 -53.90529,3.1862 -62.55826,0.6398 -125.13056,0.5748 -187.68725,0.2977 -17.67885,-0.3902 -35.34826,-1.1433 -53.00121,-2.1714 3.7184,4.5729 -3.53682,3.9662 -2.76492,1.1454 3.875,0.01 0.62373,-2.1317 -4.45383,-1.7391 -5.10908,-0.406 -8.03389,-1.0132 -5.5625,1.5937 -5.13359,2.9635 -0.32636,-4.9073 -9.67856,-2.5801 -8.67063,-0.247 -18.54451,-1.3898 -26.41519,-1.6074 -1.51053,2.1456 -4.3813,1.8649 -6.71875,3.0938 -0.8132,4.8529 9.49602,6.4658 9.4375,0.75 2.06636,2.5448 6.50529,-0.4897 7.78125,2.7812 2.5927,-1.2191 5.51154,1.3436 7.9375,-0.6562 7.20219,-1.5457 14.21315,3.4461 21.1875,0.6874 3.0904,-0.9317 4.64735,3.4621 8,1.8438 4.36937,-0.4135 8.93131,1.2126 13.46875,-0.062 11.91682,0.9131 24.42518,1.0296 36.1875,1.5937 3.30122,-0.7079 6.6919,1.4869 10.06229,0.2606 71.30876,-1.5023 142.7177,1.5579 213.96485,-2.3198 21.25369,-2.7601 43.07377,-1.5288 63.61724,-8.4187 16.0717,-5.6248 31.82144,-12.2011 48.47265,-16.3127 29.3225,-7.0773 56.12464,-21.7236 85.27883,-28.92789 20.63295,-8.71104 43.58262,-7.79315 65.63539,-7.62521 20.20065,0.78174 40.58027,4.99887 58.59375,14.3437 2.57249,2.5766 6.22239,2.5226 9.09375,4 3.42522,0.1834 2.07012,3.4014 5.3125,2.5626 1.75874,2.7745 7.65967,4.4051 7.125,-0.5626 -1.28914,-4.1644 -7.48887,-2.4369 -9.03423,-6.8413 0.0839,1.7608 -3.76383,-0.457 -6.02827,-1.3774 -21.74786,-11.51862 -46.23219,-17.65993 -71,-17 -4.59405,0.0437 -9.18812,-0.093 -13.78125,0.0312 z m -213.625,63.59375 c -9.05341,-1.0215 2.36143,-7.0461 0,0 z m -11.65625,-1.3437 c -2.82451,5.0453 -6.68283,-4.1781 0,0 z"
     id="path100"
     inkscape:connector-curvature="0" />
  <path
     style="fill:#000000;stroke:none"
     inkscape:connector-curvature="0"
     id="path102"
     d="m 511.9,985.4 c -0.2,0.2 -2,0.6 -3.9,0.9 -1.9,0.3 -4.6,0.9 -6,1.5 -8.2,3.2 -47.4,3.8 -104,1.6 -35.8,-1.3 -96.2,-0.7 -103,1.1 -0.8,0.2 -5.5,0.6 -10.5,0.9 -4.9,0.3 -12.6,1.3 -17,2.1 -14.6,2.7 -27.8,3.7 -42.8,3.2 -8.1,-0.2 -14.7,-0.2 -14.7,0.2 0,0.3 1.6,1.5 3.4,2.5 3,1.6 5.6,1.8 19.1,1.7 15.4,-0.2 25.9,-1.1 34.6,-3 6.5,-1.5 13.9,-2.2 47.4,-4.5 12.1,-0.9 23.2,-1.4 24.5,-1.1 1.4,0.2 18,0.6 37,1 19,0.3 38.1,0.8 42.5,1.1 17.1,0.9 50.6,1.1 62.5,0.3 13,-0.9 29.5,-4 33,-6.1 2.5,-1.6 2.6,-3.8 0.2,-3.8 -1,0 -2.1,0.2 -2.3,0.4 z m 2.1,1.6 c 0,0.5 -0.2,1 -0.4,1 -0.3,0 -0.8,-0.5 -1.1,-1 -0.3,-0.6 -0.1,-1 0.4,-1 0.6,0 1.1,0.4 1.1,1 z" />
  <path
     style="fill:#000000;stroke:none"
     inkscape:connector-curvature="0"
     id="path104"
     d="m 785.5,989 c 0.3,0.5 0.8,1 1.1,1 0.2,0 0.4,-0.5 0.4,-1 0,-0.6 -0.5,-1 -1.1,-1 -0.5,0 -0.7,0.4 -0.4,1 z" />
  <path
     style="fill:#000000;stroke:none"
     inkscape:connector-curvature="0"
     id="path106"
     d="m 795.8,990.7 c 0.6,0.2 1.8,0.2 2.5,0 0.6,-0.3 0.1,-0.5 -1.3,-0.5 -1.4,0 -1.9,0.2 -1.2,0.5 z" />
  <path
     style="fill:#000000;stroke:none"
     d="m 747.96875,992.46875 c -26.31541,0.42732 -51.4242,10.92925 -72.90748,25.48745 -14.76243,10.7255 -27.9805,25.7345 -32.62377,43.7 -1.37388,15.8635 3.15453,32.645 14.13081,44.4393 19.05791,18.9028 46.2849,25.257 71.90044,29.9983 29.04586,4.519 59.13231,5.0829 87.75,-2.4376 18.57832,-4.8955 38.41962,-8.9053 53.5625,-21.4062 9.19306,-6.8412 16.22353,-18.2 13.375,-30.0312 -2.79364,-18.5008 -15.64887,-33.1686 -25.30792,-48.5581 -7.99866,-10.0605 -18.01658,-18.3403 -27.99276,-26.4517 -25.22141,-12.40091 -54.10085,-14.95199 -81.88682,-14.74025 z m 2.84375,5.75 c 25.58331,0.37348 52.69538,1.50475 75.0625,14.93745 12.26897,4.7906 20.48157,16.2062 27.96463,26.5171 4.10921,6.7179 8.40476,13.2202 12.5203,19.7804 4.47008,8.1981 8.59382,16.8949 11.42132,25.7025 0.60127,16.2746 -13.81468,27.9858 -27.46875,33.3438 -19.69749,7.8175 -40.64406,12.3587 -61.59375,15 -26.32778,2.289 -52.99922,-0.1075 -78.42305,-6.5494 -14.69713,-4.1287 -29.39573,-8.6863 -41.8582,-17.8256 -11.02176,-6.5896 -17.02944,-19.1956 -19.8125,-31.3438 -2.57921,-12.9075 2.17714,-25.8614 9.03125,-36.5937 8.17916,-8.1134 17.34699,-15.6109 26.53125,-22.5313 11.93554,-7.421 25.3816,-11.4854 38.25,-16.6874 9.07834,-3.15897 18.81366,-3.57987 28.375,-3.75005 z"
     id="path108"
     inkscape:connector-curvature="0" />
  <path
     style="fill:#000000;stroke:none"
     inkscape:connector-curvature="0"
     id="path114"
     d="m 669.5,1010 c -0.3,0.5 -0.1,1 0.4,1 0.6,0 1.1,-0.5 1.1,-1 0,-0.6 -0.2,-1 -0.4,-1 -0.3,0 -0.8,0.4 -1.1,1 z" />
  <path
     style="fill:#000000;stroke:none"
     inkscape:connector-curvature="0"
     id="path116"
     d="m 185.5,1040 c 0.3,0.5 0.8,1 1.1,1 0.2,0 0.4,-0.5 0.4,-1 0,-0.6 -0.5,-1 -1.1,-1 -0.5,0 -0.7,0.4 -0.4,1 z" />
  <path
     style="fill:#000000;stroke:none"
     inkscape:connector-curvature="0"
     id="path118"
     d="m 492.5,1098.7 c -21,1.6 -61.4,5.7 -81,8.3 -4.4,0.6 -15.2,1.9 -24,2.9 -15.1,1.8 -28.5,4.4 -53,10.2 -2.2,0.5 -7.5,1.6 -11.8,2.4 -4.3,0.8 -8.1,1.6 -8.5,1.9 -0.5,0.3 -1.9,0.7 -3.3,1 -9,1.8 -59.3,14.7 -69.9,18 -4.1,1.3 -10.9,3.3 -15,4.6 -4.1,1.2 -9.1,3 -11,4 -1.9,1 -5.2,2.1 -7.2,2.5 -2.1,0.4 -3.8,1.1 -3.8,1.7 0,0.5 0.4,0.7 0.9,0.4 0.5,-0.4 0.7,0.3 0.4,1.4 -0.6,2.4 -0.5,2.4 4.1,0.5 2,-0.8 3.6,-1.3 3.6,-1.1 0,0.3 2.4,-0.6 5.3,-1.9 5.5,-2.4 31.3,-10.2 44.7,-13.5 4.1,-1 19.1,-4.8 33.3,-8.4 26.7,-6.8 32.3,-8.1 64.2,-14.6 16,-3.3 29.4,-5.2 61,-8.6 2.2,-0.2 7.8,-0.8 12.5,-1.4 4.7,-0.5 13.2,-1.4 19,-2 5.8,-0.5 14.7,-1.5 19.8,-2.1 12.8,-1.5 29.3,-1.9 37.7,-0.9 3.9,0.4 12.6,1.1 19.5,1.4 15.6,0.9 37,2.5 39,3.1 0.8,0.2 4.7,0.7 8.5,1 9.7,0.9 10.6,1.1 23.3,4.4 11.1,3 32.7,10 38.9,12.7 1.7,0.8 3.4,1.4 3.8,1.4 0.7,0 8.1,3 21,8.5 1.7,0.7 5.5,2 8.5,2.8 3,0.9 11.6,3.4 19,5.6 7.4,2.2 17.3,4.7 22,5.5 21.3,3.8 52,6.9 68.3,6.9 14.6,-0.1 45.9,-2.9 51.7,-4.6 2.5,-0.8 8,-2.2 12.2,-3.2 4.3,-1 7.5,-2.2 7.2,-2.6 -0.3,-0.5 0.1,-0.6 0.9,-0.3 1.3,0.5 12.4,-3.2 17.5,-5.8 2.3,-1.2 3,-4.2 1.2,-5.3 -0.6,-0.4 -1.6,-0.2 -2.3,0.3 -2.5,2 -17.5,7.4 -27.7,9.8 -20.5,5 -35.1,6.7 -59,6.8 -35.1,0.2 -64,-4 -98.5,-14.4 -1.6,-0.5 -6.1,-1.8 -10,-2.9 -3.8,-1.2 -8.3,-2.7 -10,-3.5 -4.9,-2.4 -20.1,-8.6 -21.1,-8.6 -0.4,0 -7.6,-2.5 -15.8,-5.4 -19.1,-6.9 -39.2,-11.9 -53.1,-13.1 -3.3,-0.3 -7.6,-0.7 -9.5,-1 -4.4,-0.6 -11.9,-1.2 -29.5,-2.5 -31.8,-2.2 -39.7,-2.6 -44,-2.3 z" />
  <path
     style="fill:#000000;stroke:none"
     inkscape:connector-curvature="0"
     id="path120"
     d="m 199.7,1157.6 c -1.4,1.5 -0.6,3.4 1.4,3.4 1.4,0 1.9,-0.5 1.7,-1.7 -0.3,-1.8 -2,-2.7 -3.1,-1.7 z" />
  <path
     style="opacity:0.44690282;fill:#008000"
     d="m 562.03125,1213.5313 c -5.46091,-0.1317 -9.42004,4.5894 -14.875,3.8437 -7.04728,0.1561 -11.7918,6.0432 -18.5,7.0938 -15.06463,5.3862 -28.11886,15.4827 -39.29179,26.6827 -10.77273,11.4043 -20.32597,26.8761 -16.30196,43.1923 2.54146,17.2569 13.7231,33.0665 30.07917,39.7339 43.47231,22.1677 95.01012,23.3779 142.08122,13.8785 20.42206,-4.7898 42.49807,-11.2544 56.65211,-27.5812 7.29119,-9.7775 4.23715,-22.905 -0.90625,-32.9062 -7.63602,-15.9138 -17.19049,-31.1911 -28.74592,-44.5738 -15.52188,-16.9683 -38.01153,-25.7862 -60.68462,-27.7628 -16.4325,-1.892 -32.99913,-1.5807 -49.50696,-1.6009 z"
     id="path3329"
     inkscape:connector-curvature="0" />
  <path
     style="fill:#008000;stroke:#000000;stroke-width:2;stroke-miterlimit:4;stroke-opacity:1;stroke-dasharray:none"
     d="m 1079.9201,978.2273 c -5.4609,-0.1317 -9.4201,4.5894 -14.875,3.8437 -7.0473,0.1561 -11.7918,6.0432 -18.5,7.0938 -15.0646,5.3862 -28.1189,15.4827 -39.2918,26.6827 -10.77273,11.4043 -20.32597,26.8761 -16.30196,43.1923 2.54146,17.2569 13.72306,33.0665 30.07916,39.7339 43.4723,22.1677 95.0101,23.3779 142.0812,13.8785 20.4221,-4.7898 42.4981,-11.2544 56.6521,-27.5812 7.2912,-9.7775 4.2372,-22.905 -0.9062,-32.9062 -7.636,-15.9138 -17.1905,-31.1911 -28.7459,-44.5738 -15.5219,-16.9683 -38.0116,-25.7862 -60.6847,-27.7628 -16.4325,-1.892 -32.9991,-1.5807 -49.5069,-1.6009 z"
     id="path3329-7"
     inkscape:connector-curvature="0" />
  <path
     style="fill:#ffdd55;stroke:#ffdd55;stroke-width:4;stroke-miterlimit:4;stroke-opacity:1;stroke-dasharray:none;fill-opacity:1"
     d="m 854.1731,717.99461 c -18.8589,-3.43218 -39.40651,-17.94787 -46.01647,-32.508 -6.18233,-13.61815 -3.03917,-32.53587 9.33857,-56.20618 13.0779,-25.00929 21.1118,-32.05831 77.4939,-67.99422 14.534,-9.26339 19.451,-15.11982 35.56,-42.35327 26.0504,-44.04036 41.5241,-59.36392 67.8168,-67.15884 25.5097,-7.56279 34.0717,-7.641 111.9692,-1.02284 31.0784,2.64042 60.6903,4.80076 65.8041,4.80076 5.8068,0 9.9642,0.80281 11.0725,2.13813 3.469,4.17999 6.8667,16.39273 6.9961,25.14738 0.2719,18.39548 -15.4943,40.36444 -44.0368,61.36157 -17.5674,12.92335 -21.5539,14.3799 -39.542,14.44747 -14.7227,0.0553 -15.7526,-0.18527 -32.8,-7.66175 -46.7162,-20.48834 -76.1468,-24.80016 -110.4,-16.17448 -36.8776,9.28654 -52,13.94816 -52,16.02946 0,3.98281 2.6465,3.75674 19.322,-1.65058 24.1673,-7.8366 46.0783,-12.11533 67.364,-13.15467 24.4964,-1.19611 26.9743,-0.21781 15.7235,6.2078 -12.3758,7.06808 -29.1282,24.9695 -45.595,48.72228 -13.3439,19.24806 -35.0222,43.19003 -46.4145,51.2611 -3.8042,2.6951 -4.3967,3.82109 -2.8562,5.42728 1.5578,1.62417 3.6394,0.90089 10.4816,-3.64208 11.1008,-7.37053 25.742,-24.03818 44.6756,-50.85891 23.225,-32.8999 44.6849,-51.2 60.0404,-51.2 7.5484,0 29.3297,7.13686 34.719,11.37603 10.8134,8.50585 9.8064,40.79401 -2.0655,66.22397 -8.8252,18.90382 -34.1668,55.3459 -46.7693,67.25568 -18.1511,17.15347 -22.485,18.75659 -54.2256,20.05816 -26.9033,1.1032 -52.3706,4.32745 -69.6,8.8116 -11.6155,3.02307 -35.5582,4.22766 -46.0559,2.31715 l 0,0 z m 157.2559,-49.64259 c 0,-0.88 -0.3175,-1.6 -0.7056,-1.6 -0.388,0 -1.1505,0.72 -1.6944,1.6 -0.5439,0.88 -0.2264,1.6 0.7056,1.6 0.9319,0 1.6944,-0.72 1.6944,-1.6 z"
     id="path3852"
     inkscape:connector-curvature="0" />
  <path
     style="fill:#ffdd55;fill-opacity:1;stroke:#ffdd55;stroke-width:5;stroke-miterlimit:4;stroke-opacity:1;stroke-dasharray:none"
     d="m 471.71633,861.49326 c -23.57363,-4.29022 -49.25809,-22.43484 -57.52054,-40.635 -7.72791,-17.02268 -3.79896,-40.66984 11.67322,-70.25772 16.34742,-31.26162 26.38975,-40.07289 96.86743,-84.99278 18.16738,-11.57923 24.31373,-18.89977 44.4499,-52.94159 32.56306,-55.05045 51.90517,-74.20489 84.77107,-83.94855 31.88708,-9.45348 42.58954,-9.55125 139.96152,-1.27854 38.84798,3.30052 75.86278,6.00094 82.25512,6.00094 7.2585,0 12.45526,1.00352 13.84054,2.67267 4.33634,5.22498 8.58342,20.49091 8.74518,31.43422 0.3399,22.99435 -19.36794,50.45555 -55.04604,76.70197 -21.9592,16.15418 -26.94234,17.97487 -49.42748,18.05933 -18.40342,0.0691 -19.69078,-0.23159 -41,-9.57718 -58.39524,-25.61043 -95.18346,-31.0002 -138,-20.2181 -46.09695,11.60817 -65,17.4352 -65,20.03682 0,4.97851 3.30808,4.69592 24.15256,-2.06322 30.20901,-9.79575 57.59784,-15.14417 84.20492,-16.44334 30.62054,-1.49514 33.7179,-0.27227 19.65436,7.75975 -15.4697,8.8351 -36.41016,31.21187 -56.99368,60.90285 -16.67986,24.06007 -43.77776,53.98753 -58.01816,64.07637 -4.7552,3.36888 -5.4959,4.77636 -3.57022,6.7841 1.94725,2.03022 4.54919,1.12612 13.10196,-4.5526 13.87603,-9.21316 32.17757,-30.04772 55.8445,-63.57364 29.03128,-41.12487 55.8561,-64 75.05046,-64 9.43558,0 36.66224,8.92108 43.39878,14.22004 13.5168,10.63232 12.258,50.99251 -2.58184,82.77996 -11.03146,23.62978 -42.7085,69.18238 -58.4616,84.0696 -22.68892,21.44184 -28.10628,23.44574 -67.78204,25.0727 -33.62907,1.379 -65.46326,5.40932 -87,11.0145 -14.51938,3.77884 -44.44777,5.28458 -57.56992,2.89644 l 0,0 z m 196.56992,-62.05324 c 0,-1.1 -0.39688,-2 -0.88196,-2 -0.48508,0 -1.4382,0.9 -2.11804,2 -0.67984,1.1 -0.28296,2 0.88196,2 1.16492,0 2.11804,-0.9 2.11804,-2 z"
     id="path3872"
     inkscape:connector-curvature="0"
     transform="scale(0.8,0.8)" />
  <path
     style="fill:#ff7f2a;stroke:none"
     d="m 829.65625,403.28125 c -12.32013,-0.2085 -23.20464,6.95739 -34.71875,9.78125 -7.63396,-1.60424 -15.18041,2.11555 -22.85968,2.36187 -7.12276,1.71017 -14.67205,1.75187 -21.76532,2.13813 -2.68097,2.21281 -6.54131,2.52278 -9.34375,0.5625 -9.67798,-1.39605 -19.77044,-0.0772 -29.46875,0.71875 -12.7551,2.98335 -25.81091,3.30016 -38.80704,1.94412 -33.32859,-2.00367 -66.45161,-6.4827 -99.75463,-8.6724 -28.9173,-1.18725 -60.39936,2.08067 -83.09458,21.85328 -2.94154,2.68748 -6.80229,6.63809 -10.59375,3.125 -9.15361,-10.68629 -19.93021,-21.86543 -34.4375,-24.875 -15.39754,-1.24788 -31.155,0.0916 -46.68747,-0.31775 -30.10574,0.71197 -60.10459,-1.97578 -90.15628,-2.99475 -34.03821,-0.44401 -69.18839,0.28685 -101.1875,12.90625 -14.78909,6.11562 -29.12945,14.32578 -40.59375,25.5 -5.55879,5.81499 -4.99713,15.08278 0.15625,20.96875 5.358,6.55003 3.99461,15.38208 0.6875,22.53125 -4.62936,12.76586 -2.85318,26.96775 -2.91619,40.34237 0.70628,25.63583 7.92313,51.50096 22.91619,72.50138 8.17111,11.79619 20.87716,20.56959 35.34375,22.875 29.32502,6.05614 58.9124,-2.7595 87.7321,-7.9071 4.31452,-0.0753 11.60569,-4.12835 13.9554,1.4071 -0.73142,16.13672 -2.50975,35.32378 10.21875,47.59375 10.74097,12.96998 26.86333,21.21179 42.97999,25.16781 17.8989,3.30312 36.54224,1.89888 54.52001,0.23844 20.14965,-3.96741 39.86543,-12.37778 60.81213,-11.18327 12.92283,-0.53088 27.08529,2.75459 38.78162,-4.00423 9.74817,-4.02665 19.72812,1.72518 29.6875,1.5 36.20314,3.61218 73.1607,-1.51193 106.4375,-16.125 14.86978,-4.45785 31.45354,-2.06754 44.8125,-10.9375 15.43989,-7.65442 28.73557,-19.94998 37.30031,-34.99121 12.62078,-19.75166 23.64918,-40.54151 37.41844,-59.35254 7.54411,-11.10578 19.69963,-17.96275 30.08504,-26.17797 14.91215,-10.68977 30.76277,-23.31733 34.85246,-42.35328 6.36827,-21.92038 4.23397,-45.38195 -0.0937,-67.46875 0.7912,-8.65327 -4.58756,-18.71246 -14.28125,-18.4375 -2.62736,-0.34036 -5.29381,-0.26055 -7.9375,-0.21875 z m 3.5,3.15625 c 10.04878,0.173 12.75227,11.91015 15.84748,19.35493 6.42752,20.82679 5.00395,43.99458 -1.78498,64.52007 -9.26808,23.26563 -33.64182,34.02606 -51.39456,49.85732 -9.66856,8.36581 -18.83088,17.44836 -25.79294,28.01768 -4.28002,7.38669 -4.21706,16.37208 -9.56146,23.27287 -10.14478,15.56406 -18.35083,33.12339 -33.15729,44.78963 -15.38612,13.06965 -35.38182,19.94602 -55.54951,20.37943 -17.0348,3.80594 -32.82881,12.78164 -50.32549,15.40182 -22.50132,4.62819 -45.77705,3.80132 -68.5,2.03125 -3.56454,-0.61399 -6.70408,-3.5962 -4.34375,-7.21875 4.05705,-6.00353 10.45897,-10.1582 14.46875,-16.40625 11.27765,-14.96091 20.15748,-31.63806 30.76557,-47.15614 10.73007,-19.09248 14.3938,-41.31288 13.98443,-62.96886 -1.49603,-3.47617 -3.19484,-9.97425 2.34375,-10.5625 5.46988,0.98813 10.07081,4.52125 15.84375,4.84375 20.70506,3.74012 41.19508,-6.0802 56.5,-19.5625 18.58121,-14.21866 36.91844,-33.56688 38.28125,-58.28125 0.39377,-9.97908 -3.23646,-19.44316 -7.78125,-28 -0.27655,-6.00452 7.07312,-5.6553 11.15625,-5.15625 24.2757,-0.33753 48.5455,-2.04764 72.6875,-4.6875 -8.8677,12.47786 -15.39813,26.59634 -26.5,37.3125 -19.75659,22.89291 -43.90527,45.58251 -49.15625,76.71875 -1.05223,7.98302 -2.81411,17.65768 1.1875,24.78125 2.79954,1.72717 0.1993,-4.68209 0.9375,-5.9375 -0.90194,-21.67434 7.13509,-42.79188 20.90835,-59.3656 15.90534,-21.40553 37.89362,-38.67476 48.71665,-63.54065 7.54547,-14.89213 24.00034,-22.38495 40.21875,-22.4375 z m -111.125,150.96875 c -0.10364,0.0325 0.0429,0.0577 0,0 z M 302.625,412.875 c 35.51948,-0.006 70.81894,6.52485 106.375,4.375 17.02607,0.29688 35.56077,-2.75026 51.21875,5.40625 3.38625,1.67699 6.90636,7.37748 1.96875,9.1875 -6.63581,2.37143 -13.90373,-0.57614 -20.78125,0.9375 -25.62351,2.66077 -48.24725,16.53606 -71.98711,25.61745 -19.42477,9.06437 -40.94943,16.23429 -62.57539,12.0388 -0.26352,6.58601 7.90393,6.71872 12.625,6.34375 19.96706,0.60313 38.59655,-7.01052 56.34993,-15.27843 16.1052,-6.4497 31.88,-14.50846 48.71257,-18.65907 11.99173,-0.91589 23.7837,-2.86379 35.625,-4.90625 5.74771,0.30721 13.34524,-2.2538 17.53125,3 0.31982,7.96108 -7.85514,12.17277 -11.0625,18.625 -13.81306,18.57401 -22.91672,40.45354 -37.68574,58.25958 -15.62504,14.28007 -35.9774,22.07075 -52.63688,35.14211 -17.25205,11.63569 -32.77766,26.20155 -41.34334,45.30524 -2.97789,6.20393 -5.64717,12.80205 -10.83404,17.51182 -4.51435,-2.64197 -9.57942,-3.76676 -14.68363,-2.41211 -24.17263,2.51712 -47.72715,11.41472 -72.34762,9.75586 -16.4717,0.14585 -33.72409,-5.32942 -44.21875,-18.46875 -15.13759,-17.53426 -21.73448,-41.01653 -23.748,-63.77942 -0.73556,-14.82568 -1.26558,-30.0314 1.498,-44.62683 1.53852,-3.79352 7.53186,-3.62843 8.21875,0.65625 7.63648,15.78582 20.0404,33.12012 39.09375,34.1875 21.5182,3.50915 42.76271,-1.96164 62.47214,-10.15122 17.8016,-6.78582 37.44477,-6.78468 56.24661,-5.31753 -9.53938,-8.04849 -22.82207,-5.16732 -34.27862,-5.14621 C 287.21179,511.278 272.8947,516.61617 259,522.3125 c -17.62295,4.92637 -37.7186,7.67542 -54.78125,-0.25 -10.24597,-7.43136 -13.74974,-20.35252 -21.31287,-30.07956 C 177.02736,481.63959 169.97618,471.53225 166,460.4375 c 1.48689,-10.411 12.57229,-15.21177 19.84375,-21.25 29.41901,-19.44987 65.65691,-25.00517 100.40625,-25.65625 5.46066,-0.16528 10.91839,-0.39231 16.375,-0.65625 z m 254.1875,2.6875 c 26.62107,0.38466 52.99142,4.78002 79.56845,5.90858 24.21186,2.43146 48.52439,5.29611 72.9003,4.06017 7.77979,11.68231 12.67674,26.73339 7.09375,40.40625 -8.43856,25.82838 -31.69494,42.79758 -53.21875,57.5625 -15.31124,9.48467 -35.17765,11.01857 -51.6875,3.65625 -24.11023,-10.7448 -49.01036,-21.80835 -75.65625,-24.375 -14.50059,-2.05088 -29.21163,-0.76163 -43.19254,3.28995 -17.6992,4.24806 -35.77325,8.89603 -52.90121,14.3038 -0.26422,1.54333 0.14133,6.19718 2.59375,4.53125 24.86461,-9.81562 51.45896,-15.40373 77.96838,-18.96452 11.0683,-0.22145 22.12003,0.61981 33.15662,1.33952 -24.41694,10.66433 -42.0797,31.76424 -56.47134,53.48128 -13.68893,21.28862 -29.41657,42.3738 -51.65366,55.14372 -1.11065,3.48489 4.15767,4.3079 6.03125,2.09375 14.49191,-7.00545 24.02712,-20.52927 34.25454,-32.39503 18.84664,-25.44763 34.35048,-56.55091 64.37046,-70.60497 7.45499,-3.92631 16.31585,-3.87969 23.90625,-0.3125 8.68697,3.05692 18.49819,5.08212 25.625,10.90625 5.29734,7.91689 4.10505,18.04026 5.0625,27.09375 -0.88208,23.14232 -10.96574,44.94852 -24.75,63.25 -8.10187,11.7909 -14.11825,25.15117 -24.3125,35.3125 -9.66149,10.14769 -20.43012,20.6043 -33.9375,25.28125 -19.08028,4.83005 -39.35412,-2.03617 -58.16334,4.27869 -16.81191,2.3955 -33.87446,3.79142 -49.99291,9.31506 -21.45921,2.84771 -45.21485,1.54843 -63.40625,-11.3125 -12.47309,-8.18673 -22.95628,-21.39098 -22.53125,-37 0.0637,-21.51718 10.8803,-41.28323 22.6625,-58.58125 11.4285,-15.82045 28.31423,-26.34842 44.51742,-36.76658 14.31788,-8.46505 29.32744,-16.46438 41.13258,-28.27717 5.12006,-8.0397 11.20418,-17.00747 16.00162,-25.84714 10.81134,-19.41457 22.55184,-38.72243 39.21296,-53.64161 16.4972,-16.17859 40.88343,-19.79791 62.93327,-22.76559 0.96117,-0.10747 1.92444,-0.27595 2.8834,-0.37066 z"
     id="path70"
     inkscape:connector-curvature="0" />
  <g
     id="g3961">
    <path
       transform="scale(0.8,0.8)"
       inkscape:connector-curvature="0"
       id="path3886"
       d="m 478.10468,863.3163 c -37.20338,-3.3606 -69.41843,-31.69596 -69.41843,-61.0583 0,-13.36352 6.24203,-33.60652 16.59507,-53.81798 12.17914,-23.77646 30.53134,-41.11005 73.75115,-69.65779 20.20615,-13.34665 38.46497,-26.98686 42.62729,-31.84462 4.00459,-4.67367 16.44879,-23.2543 27.65378,-41.29028 34.92157,-56.21109 55.58521,-73.61133 97.74947,-82.31187 24.0099,-4.95442 33.8772,-4.86406 109.62324,1.00389 34.65,2.68429 73.26174,5.5168 85.80388,6.29448 17.96216,1.11375 23.56524,2.17532 26.3898,4.99987 4.57694,4.57694 9.82034,22.13006 9.75884,32.66933 -0.0642,11.01567 -7.72098,28.87501 -18.20594,42.46548 -11.06638,14.34407 -41.15512,39.1062 -57.0582,46.95719 -11.0701,5.46505 -14.20552,6.07796 -31.09228,6.07796 -15.59374,0 -20.94466,-0.87931 -31.5332,-5.18182 -7.0139,-2.85 -13.01702,-5.18182 -13.34026,-5.18182 -0.32326,0 1.17954,2.99532 3.33954,6.65626 9.48382,16.07386 6.06458,51.11278 -7.84026,80.34374 -11.3452,23.85006 -39.06246,63.94222 -56.3117,81.45316 -21.98824,22.32182 -28.3288,24.78464 -70.91022,27.54316 -37.6664,2.4401 -52.43465,4.21674 -82,9.8647 -25.97079,4.96128 -36.60455,5.72946 -55.58157,4.01526 l 0,0 z m 95.97781,-99.5875 c 12.87491,-10.17704 22.41389,-21.19636 49.8603,-57.5981 35.36632,-46.9058 61.33308,-68.4604 79.8673,-66.29663 9.212,1.07545 6.17224,-1.1859 -6.00192,-4.46497 -7.63604,-2.05674 -10.06084,-2.11232 -10.68332,-0.24488 -0.44288,1.32866 -5.89776,5.88508 -12.12192,10.12538 -15.43716,10.51676 -29.61296,25.95026 -55.28542,60.19042 -11.95894,15.95 -30.17546,37.325 -40.48117,47.5 -19.58123,19.33288 -21.77641,23.92816 -5.15385,10.78878 z m 1.63405,-116.2976 c 26.9643,-7.85486 46.68845,-11.85637 73.82325,-14.97678 l 22.14646,-2.54677 -16.32406,-0.23381 c -8.97824,-0.1286 -22.92824,1.03188 -31,2.57883 -25.54514,4.89574 -79.09702,20.83622 -70.97439,21.12654 0.93586,0.0335 10.98379,-2.64316 22.32874,-5.94801 z"
       style="fill:#ffd42a;fill-opacity:1;stroke:none" />
    <path
       inkscape:connector-curvature="0"
       id="path3904"
       d="m 298.025,412.425 c -33.81834,0.84305 -68.98727,2.96484 -99.5,18.8 -12.5663,6.60506 -25.91306,14.34434 -32.925,27.125 -0.66748,5.29198 3.61495,9.92914 5.47153,14.6835 8.87593,15.82129 17.63338,32.16684 29.25347,46.0665 10.40526,9.57932 25.8824,8.87123 39.09531,7.91355 17.58197,-1.74566 33.75794,-10.2046 50.80469,-13.76355 13.0155,-1.31583 26.37179,-1.20094 39.45,-0.175 0.73566,0.0302 4.70435,1.28125 1.925,1.225 -15.69771,0.3774 -31.68812,-0.27123 -46.8,4.75 -17.97198,5.40194 -35.96902,11.86602 -54.99991,11.53712 -12.4419,0.48042 -25.58337,-2.53484 -34.37509,-11.96212 -8.07962,-7.02203 -11.90804,-17.52307 -18.725,-25.525 -3.50942,-2.55239 -6.38916,2.54254 -6.9,5.5 -3.50693,16.94542 -1.84129,34.64336 0.0587,51.68633 3.43819,24.10131 12.41357,49.79741 33.15453,64.16098 15.40926,11.14119 35.47372,9.42761 53.43332,8.10378 21.15136,-1.54787 41.82939,-8.01894 63.07581,-8.15981 5.16414,1.28614 9.11692,0.27135 10.54013,-5.31247 9.41809,-17.52155 20.07378,-35.18382 36.23748,-47.12881 19.17901,-15.45152 41.65678,-26.69107 61.125,-41.925 17.62896,-20.41706 29.11427,-45.38392 45.44376,-66.81564 2.26182,-3.98277 7.44458,-9.4913 3.88124,-14.13436 -5.51014,-3.89401 -13.05866,-1.62111 -19.32134,-1.49864 -20.6594,2.14041 -41.54012,5.46104 -60.61198,14.07345 -23.6753,9.03214 -46.55299,22.25399 -72.28796,23.80225 -5.21354,0.69317 -11.25151,0.80387 -15.45372,-2.62706 11.09135,-1.27858 22.66539,-0.16696 33.475,-3.725 31.12946,-9.00717 59.3581,-26.47999 91.075,-33.725 9.95422,-2.37394 20.64702,-1.02071 30.475,-3.65 3.76322,-3.0961 -0.93115,-7.61333 -3.75,-9.375 -11.07063,-7.52522 -25.34905,-5.0761 -38.02492,-6.01138 -31.77005,-0.14004 -63.55284,-0.82702 -95.22189,-3.46232 -9.68389,-0.46721 -19.38458,-0.57808 -29.07819,-0.4513 z"
       style="fill:#ffd42a;fill-opacity:1;stroke:none" />
    <path
       inkscape:connector-curvature="0"
       id="path3908"
       d="m 829.47504,406.1 c -16.12696,0.12313 -31.13541,10.06744 -38.29695,24.31959 -12.14607,23.11771 -31.94931,40.97071 -47.55309,61.73041 -14.17232,16.48109 -20.49821,38.39636 -21.95,59.85 -1.68999,-9.54128 0.79648,-19.31667 3.225,-28.5 9.75076,-29.32987 33.76519,-50.61238 52.32554,-74.4432 6.30965,-8.83914 13.75204,-17.35011 17.94946,-27.5068 -0.0425,-4.18986 -5.78335,-2.0624 -8.4,-2.475 -20.79211,1.67356 -41.61292,2.95523 -62.4739,3.21705 -4.31938,10e-4 -12.93403,0.23126 -11.2261,6.80795 3.29587,10.66481 7.40422,21.62716 5.475,33.025 -3.21209,22.29763 -20.39017,39.42281 -37.53752,52.68329 -15.80159,12.37685 -35.52889,21.92096 -55.99932,18.39719 -5.6917,-0.46258 -11.21482,-4.53087 -16.93816,-3.18048 -2.39505,4.27594 -1.16468,9.88151 -1.82676,14.64878 0.27378,23.11836 -5.08707,46.48251 -18.32848,65.7218 -11.40697,18.28311 -23.21248,36.82207 -37.29476,53.07942 -2.65065,2.86304 -3.66613,8.62072 0.85,10.25 10.2649,3.31705 21.51729,2.00346 32.2,2.325 17.84449,0.0389 35.6511,-1.9053 52.725,-7.175 18.64377,-5.36413 37.1299,-11.61444 56.35,-14.625 25.39606,-5.49072 44.97771,-24.6701 58.31678,-46.05651 C 758.44986,597.3517 765.1123,586.0468 769.025,573.5 c 9.16615,-17.7545 25.62481,-30.10032 40.59972,-42.77476 15.0656,-12.0689 32.97064,-23.66047 39.0592,-43.00717 5.07856,-17.31181 5.48576,-35.99769 2.904,-53.83124 -1.85096,-9.37997 -4.5344,-19.90525 -12.33792,-26.06183 -2.98432,-1.50854 -6.46624,-1.78963 -9.77496,-1.725 z"
       style="fill:#ffd42a;fill-opacity:1;stroke:none" />
  </g>
</svg>
