<?xml version="1.0" encoding="UTF-8" standalone="no"?>
<!-- Created with Inkscape (http://www.inkscape.org/) -->

<svg
   xmlns:dc="http://purl.org/dc/elements/1.1/"
   xmlns:cc="http://creativecommons.org/ns#"
   xmlns:rdf="http://www.w3.org/1999/02/22-rdf-syntax-ns#"
   xmlns:svg="http://www.w3.org/2000/svg"
   xmlns="http://www.w3.org/2000/svg"
   version="1.1"
   width="210mm"
   height="297mm"
   id="svg4991">
  <defs
     id="defs3" />
  <metadata
     id="metadata4">
    <rdf:RDF>
      <cc:Work
         rdf:about="">
        <dc:format>image/svg+xml</dc:format>
        <dc:type
           rdf:resource="http://purl.org/dc/dcmitype/StillImage" />
        <dc:title></dc:title>
      </cc:Work>
    </rdf:RDF>
  </metadata>
  <g
     id="layer1">
    <path
       d="m 211.59375,252.5625 0,0.40625 c -14.57286,0.47603 -26.25,12.40514 -26.25,27.09375 0,14.99059 12.16566,27.15625 27.15625,27.15625 1.0895,0 2.16281,-0.0627 3.21875,-0.1875 l 47.84375,0 c 1.05594,0.12481 2.12925,0.1875 3.21875,0.1875 14.99059,0 27.15625,-12.16566 27.15625,-27.15625 0,-14.68861 -11.67714,-26.61772 -26.25,-27.09375 l 0,-0.40625 -56.09375,0 z"
       id="path5596"
       style="fill:#ded16f;fill-opacity:1;stroke:none" />
    <path
       d="m 237.56112,252.56596 0,0.40625 c -14.57286,0.47603 -26.25,12.40514 -26.25,27.09375 0,14.99059 12.16566,27.15625 27.15625,27.15625 1.0895,0 2.16281,-0.0627 3.21875,-0.1875 l 47.84375,0 c 1.05594,0.12481 2.12925,0.1875 3.21875,0.1875 14.99059,0 27.15625,-12.16566 27.15625,-27.15625 0,-14.68861 -11.67714,-26.61772 -26.25,-27.09375 l 0,-0.40625 -56.09375,0 z"
       id="path5694"
       style="fill:#ded16f;fill-opacity:1;stroke:none" />
  </g>
</svg>
